<?xml version="1.0" standalone="no"?>
<!DOCTYPE svg PUBLIC "-//W3C//DTD SVG 20010904//EN"
 "http://www.w3.org/TR/2001/REC-SVG-20010904/DTD/svg10.dtd">
<svg version="1.0" xmlns="http://www.w3.org/2000/svg"
 width="128.000000pt" height="128.000000pt" viewBox="0 0 128.000000 128.000000"
 preserveAspectRatio="xMidYMid meet">
<metadata>
Created by potrace 1.14, written by Peter Selinger 2001-2017
</metadata>
<g transform="translate(0.000000,128.000000) scale(0.100000,-0.100000)"
fill="#000000" stroke="none">
<path d="M263 1128 c-9 -12 -33 -53 -82 -141 -12 -21 -28 -48 -36 -61 -14 -20
-12 -27 29 -96 24 -41 55 -95 69 -120 l25 -45 139 -1 138 -2 62 107 c34 58 64
113 68 122 4 10 -21 61 -62 132 l-68 117 -136 0 c-98 0 -139 -4 -146 -12z"/>
<path d="M693 783 c-28 -49 -59 -102 -69 -119 l-18 -31 70 -119 69 -119 133 0
c73 0 136 2 141 5 5 4 122 201 136 230 2 3 -27 57 -64 120 l-67 115 -141 3
-140 3 -50 -88z"/>
<path d="M200 486 c-69 -118 -69 -120 -53 -146 9 -14 27 -43 39 -65 11 -22 35
-62 51 -90 l29 -50 140 -3 139 -2 16 27 c9 16 39 68 68 117 60 103 63 81 -31
242 l-53 91 -138 0 -138 0 -69 -121z"/>
</g>
</svg>
